<?xml version="1.0" encoding="UTF-8" standalone="no"?>
<!-- Created with Inkscape (http://www.inkscape.org/) -->

<svg
   xmlns:dc="http://purl.org/dc/elements/1.1/"
   xmlns:cc="http://creativecommons.org/ns#"
   xmlns:rdf="http://www.w3.org/1999/02/22-rdf-syntax-ns#"
   xmlns:svg="http://www.w3.org/2000/svg"
   xmlns="http://www.w3.org/2000/svg"
   xmlns:sodipodi="http://sodipodi.sourceforge.net/DTD/sodipodi-0.dtd"
   xmlns:inkscape="http://www.inkscape.org/namespaces/inkscape"
   width="300"
   height="600"
   id="svg2"
   version="1.1"
   inkscape:version="0.91 r"
   sodipodi:docname="arrow.svg">
  <defs
     id="defs4">
    <inkscape:perspective
       sodipodi:type="inkscape:persp3d"
       inkscape:vp_x="0 : 526.18109 : 1"
       inkscape:vp_y="0 : 1000 : 0"
       inkscape:vp_z="744.09448 : 526.18109 : 1"
       inkscape:persp3d-origin="372.04724 : 350.78739 : 1"
       id="perspective10" />
  </defs>
  <sodipodi:namedview
     id="base"
     pagecolor="#ffffff"
     bordercolor="#666666"
     borderopacity="1.0"
     inkscape:pageopacity="0.0"
     inkscape:pageshadow="2"
     inkscape:zoom="0.69977474"
     inkscape:cx="125.63847"
     inkscape:cy="198.98278"
     inkscape:document-units="px"
     inkscape:current-layer="g4136"
     showgrid="false"
     inkscape:window-width="1039"
     inkscape:window-height="741"
     inkscape:window-x="47"
     inkscape:window-y="0"
     inkscape:window-maximized="0" />
  <metadata
     id="metadata7">
    <rdf:RDF>
      <cc:Work
         rdf:about="">
        <dc:format>image/svg+xml</dc:format>
        <dc:type
           rdf:resource="http://purl.org/dc/dcmitype/StillImage" />
        <dc:title />
      </cc:Work>
    </rdf:RDF>
  </metadata>
  <g
     inkscape:label="Ebene 1"
     inkscape:groupmode="layer"
     id="layer1"
     transform="translate(-133.70888,-101.72457)">
    <g
       id="g4136"
       transform="matrix(0.65973234,-0.90523758,1.0653245,0.560594,-555.46118,484.91312)"
       style="fill:#ffffff">
      <path
         d="m 303.32884,479.17955 c -1.1267,1.28743 -2.29225,2.54189 -3.38012,3.86231 -1.58912,1.92881 -3.09602,3.92394 -4.64843,5.88244 -10.64856,13.43399 -21.09242,27.0051 -31.45735,40.65945 -15.99656,21.81948 -33.41107,42.56457 -49.20678,64.52812 -3.93378,5.94674 -8.25975,11.69649 -11.61659,18.01027 -0.64125,1.20611 -1.85859,3.78159 -2.11331,5.37885 -0.0195,0.12363 0.15246,0.19851 0.22869,0.29777 0.29464,-2.88459 1.94605,-3.19029 4.59108,-3.85729 1.52862,-0.38547 3.07033,-0.71874 4.61445,-1.03655 4.64778,-0.9566 10.41558,-1.94631 14.97403,-2.75965 3.79562,-0.47963 7.57953,-1.06344 11.38687,-1.43889 10.80691,-1.06572 20.79661,-1.4899 31.70149,-1.78318 21.08202,-0.56698 42.13544,-0.23679 63.21521,0.18482 20.51333,0.47108 41.01659,1.1714 61.53076,1.60105 0,0 -28.7475,14.036 -28.7475,14.036 l 0,0 c -19.48736,-1.41047 -38.9859,-2.82513 -58.5359,-2.96697 -7.44397,-0.0783 -14.88757,-0.26636 -22.33188,-0.23477 -30.83574,0.13081 -61.89296,1.80722 -92.12031,8.2331 -8.88685,2.12606 -9.69635,2.25084 -17.79516,4.41225 -1.87393,0.50012 -3.72752,1.07618 -5.60779,1.55187 -2.20781,0.55854 -5.21103,1.79263 -7.4614,0.15897 -0.87732,-0.63688 -1.16546,-1.82835 -1.74819,-2.74253 0.0387,-0.84082 -0.14177,-1.72122 0.11609,-2.52246 0.43294,-1.34528 3.86528,-6.09751 4.31339,-6.70328 4.82704,-6.5252 10.23704,-12.59221 15.11526,-19.0781 17.49657,-21.63227 36.51256,-42.07126 52.16693,-65.15258 8.05038,-11.63524 7.84069,-11.15865 15.2902,-22.56555 2.54551,-3.89775 7.85654,-12.11368 10.36702,-16.49929 2.26008,-3.94816 2.72867,-5.18436 4.37902,-8.88133 0,0 42.78022,-10.57485 42.78022,-10.57485 z"
         id="path3672"
         style="opacity:1;fill:#ffffff;fill-opacity:1;fill-rule:evenodd;stroke:none"
         inkscape:connector-curvature="0" />
      <path
         d="m 341.51203,538.84199 c 11.54862,-3.41782 23.0368,-7.02406 34.63862,-10.25782 33.08061,-10.8268 67.19355,-18.02524 101.24666,-25.00671 8.00493,-1.43825 15.99868,-2.9402 24.01479,-4.31472 18.24653,-3.12871 32.25007,-5.32628 50.63334,-7.69225 24.54212,-3.15861 49.16538,-5.45617 73.8123,-7.59073 29.40654,-2.37211 58.935,-2.79229 88.42386,-2.97339 0,0 -68.10368,32.99612 -68.10368,32.99612 l 0,0 c -2.84412,-0.56298 -5.66863,-1.23614 -8.53236,-1.68894 -20.92699,-3.3091 -42.21012,-3.04283 -63.31968,-2.4428 -7.08001,0.34356 -14.16683,0.56782 -21.24004,1.03069 -41.95803,2.74573 -83.62562,9.05694 -124.65363,18.21368 -8.20552,1.9723 -16.43559,3.84503 -24.61653,5.91689 -31.14794,7.88832 -61.82669,17.4797 -92.20033,27.9347 -11.09906,3.86832 -22.16685,7.79825 -33.18209,11.89972 -1.4995,0.55833 -10.5644,4.00853 -12.75667,4.78587 -1.19372,0.42329 -2.4068,0.78986 -3.61019,1.18478 0,0 79.44562,-41.99506 79.44562,-41.99506 z"
         id="path3719"
         style="opacity:1;fill:#ffffff;fill-opacity:1;fill-rule:evenodd;stroke:none"
         inkscape:connector-curvature="0" />
    </g>
  </g>
</svg>
